<?xml version="1.0" encoding="utf-8"?>
<!-- Generator: Adobe Illustrator 16.0.0, SVG Export Plug-In . SVG Version: 6.00 Build 0)  -->
<!DOCTYPE svg PUBLIC "-//W3C//DTD SVG 1.1//EN" "http://www.w3.org/Graphics/SVG/1.1/DTD/svg11.dtd">
<svg version="1.1" xmlns="http://www.w3.org/2000/svg" xmlns:xlink="http://www.w3.org/1999/xlink" x="0px" y="0px" width="26px"
	 height="26px" viewBox="0 0 16 16" enable-background="new 0 0 16 16" xml:space="preserve">
<g id="Layer_1">
	<polyline fill="none" stroke="#FFFFFF" stroke-linecap="round" stroke-linejoin="round" stroke-miterlimit="10" points="1,5.5 
		4.5,5.5 4.5,3.5 6.5,3.5 	"/>
	<polyline fill="none" stroke="#FFFFFF" stroke-linecap="round" stroke-linejoin="round" stroke-miterlimit="10" points="15,7.5 
		12.5,7.5 12.5,9.5 10.5,9.5 	"/>
	<polyline fill="none" stroke="#FFFFFF" stroke-linecap="round" stroke-linejoin="round" stroke-miterlimit="10" points="6.5,7.5 
		6.5,5.5 8.5,5.5 8.5,0.5 	"/>
	<polyline fill="none" stroke="#FFFFFF" stroke-linecap="round" stroke-linejoin="round" stroke-miterlimit="10" points="10.5,5.5 
		10.5,7.5 8.5,7.5 8.5,12.5 	"/>
	<polyline fill="none" stroke="#FFFFFF" stroke-linecap="round" stroke-linejoin="round" stroke-miterlimit="10" points="10.5,3.5 
		12.5,3.5 12.5,5.5 	"/>
	<polyline fill="none" stroke="#FFFFFF" stroke-linecap="round" stroke-linejoin="round" stroke-miterlimit="10" points="6.5,9.5 
		4.5,9.5 4.5,7.5 	"/>
	
		<line fill="none" stroke="#FFFFFF" stroke-linecap="round" stroke-linejoin="round" stroke-miterlimit="10" x1="2.5" y1="7.5" x2="2.5" y2="12.5"/>
	
		<line fill="none" stroke="#FFFFFF" stroke-linecap="round" stroke-linejoin="round" stroke-miterlimit="10" x1="4.5" y1="9.5" x2="4.5" y2="12.5"/>
	
		<line fill="none" stroke="#FFFFFF" stroke-linecap="round" stroke-linejoin="round" stroke-miterlimit="10" x1="12.5" y1="3.5" x2="14.5" y2="3.5"/>
</g>
<g id="Layer_3">
</g>
<g id="Layer_2">
	<g>
		<path fill="#FFFFFF" d="M8,1c3.85938,0,7,2.48828,7,5.54688C15,9.55371,11.85938,12,8,12H3
			c-0.26514,0-0.51953,0.10547-0.70703,0.29297L1,13.58594V6.54688C1,3.48828,4.14014,1,8,1 M8,0C3.58154,0,0,2.93115,0,6.54688V16
			l3-3c0,0,3.95166,0,5,0c4.41797,0,8-2.83691,8-6.45313C16,2.93115,12.41797,0,8,0L8,0z"/>
	</g>
</g>
</svg>
